<?xml version="1.0" encoding="UTF-8"?>
<svg id="Layer_3" data-name="Layer 3" xmlns="http://www.w3.org/2000/svg" version="1.1" viewBox="0 0 139.6 133.3">
  <defs>
    <style>
      .cls-1 {
        fill: #aadbdb;
        isolation: isolate;
        opacity: .6;
      }

      .cls-1, .cls-2 {
        stroke-width: 0px;
      }

      .cls-2 {
        fill: #ff5b45;
      }
    </style>
  </defs>
  <ellipse class="cls-1" cx="69.2" cy="71.8" rx="45.6" ry="45.6"/>
  <path class="cls-2" d="M129.6,105.3s0-.5-.5-.5c-1-1.4-12-11-16.3-14.9-4.3-3.4-8.6-6.7-13-10.1-2.4-1.4-4.8-3.4-6.7-4.8-1-1-2.4-1.4-3.4-2.4-.5-.5-3.4-2.4-3.4-2.4.5,9.6-4.3,14.4-10.6,18.2,0,0,16.8,7.2,25,10.5,5.3,1.9,10.1,4.3,15.8,5.8,2.9,1,5.8,1.9,8.6,2.4,1,0,3.8,1,4.3,0,.5-1,.5-1.4,0-1.9Z"/>
  <path class="cls-2" d="M66.3,3.7l-.5.5c-.5,1.4-3.4,15.8-4.3,22.1-.5,5.3-1,10.5-1.4,16.3,0,2.9-.5,5.8-.5,8.6s0,2.9-.5,4.3v3.8c7.7-5.3,14.4-3.8,21.1-.5,0,0-2.4-18.2-3.8-26.9-1-5.3-1.9-11-3.4-16.3-1-2.9-1.4-5.8-2.4-8.6-.5-1-1.4-3.4-2.4-3.8-1-.5-1.4,0-1.9.5Z"/>
  <path class="cls-2" d="M52.8,69.8s-14.4,11-21.6,16.3c-4.3,3.4-8.6,6.7-13,10.5-2.4,1.9-4.3,4.3-6.2,6.7-.5,1-2.4,2.9-2.4,3.8s1,1,1.4,1h.5c1.4,0,15.8-4.8,21.1-6.7,5.3-1.9,10.1-4.3,15.4-6.2,2.4-1,5.3-2.4,7.7-3.4,1.4-.5,2.4-1,3.8-1.9.5,0,3.8-1.9,3.8-1.9-8.6-4.3-10.6-11-10.6-18.2Z"/>
  <path class="cls-2" d="M69.6,83.3c-5.8,0-11-4.8-11.5-10.5-.5-6.2,4.8-11.5,11-11.5s11,4.8,11,11c.5,5.8-4.3,10.5-10.6,11Z"/>
  <path class="cls-2" d="M62.9,91.4s0,24,.5,38.8h12v-38.8h-12.5Z"/>
</svg>